HIERARCHY
ROOT Hips
{
	OFFSET 0.00000 0.00000 0.00000
	CHANNELS 6 Xposition Yposition Zposition Yrotation Zrotation Xrotation 
	JOINT Lumbar
	{
		OFFSET 0 0 0
		CHANNELS 3 Zrotation Xrotation Yrotation
		JOINT Neck
		{
			OFFSET 0.00 0.2701 0.00
			CHANNELS 3 Zrotation Xrotation Yrotation
			End Site
			{
				OFFSET 0.00 0.1379 0.00
			}
		}
		JOINT RightShoulder
		{
			OFFSET 0.0119 0.2289 0.1181
			CHANNELS 3 Zrotation Xrotation Yrotation
			JOINT RightElbow
			{
				OFFSET 0.00 -0.1475 0.00
				CHANNELS 2 Zrotation Yrotation
				JOINT RightWrist
				{
					OFFSET 0.00 -0.1605 0.00
					CHANNELS 2 Zrotation Xrotation
					End Site
					{
						OFFSET 0.0040 -0.1068 0.0006
					}
				}
			}
		}
		JOINT LeftShoulder
		{
			OFFSET 0.0119 0.2289 -0.1181
			CHANNELS 3 Zrotation Xrotation Yrotation
			JOINT LeftElbow
			{
				OFFSET 0.00 -0.1475 0.00
				CHANNELS 2 Zrotation Yrotation
				JOINT LeftWrist
				{
					OFFSET 0.00 -0.1605 0.00
					CHANNELS 2 Zrotation Xrotation
					End Site
					{
						OFFSET 0.0040 -0.1068 -0.0006
					}
				}
			}
		}
	}
	JOINT RightHip
	{
		OFFSET 0.0316 -0.0424 0.0458
		CHANNELS 3 Zrotation Xrotation Yrotation
		JOINT RightKnee
		{
			OFFSET 0.00 -0.2438 0.00
			CHANNELS 1 Zrotation
			JOINT RightAnkle
			{
				OFFSET 0.00 -0.2449 0.00
				CHANNELS 3 Zrotation Xrotation Yrotation
				End Site
				{
					OFFSET 0.1237 -0.0542 0.0051
				}
			}
		}
	}
	JOINT LeftHip
	{
		OFFSET 0.0316 -0.0424 -0.0458
		CHANNELS 3 Zrotation Xrotation Yrotation
		JOINT LeftKnee
		{
			OFFSET 0.00 -0.2438 0.00
			CHANNELS 1 Zrotation
			JOINT LeftAnkle
			{
				OFFSET 0.00 -0.2449 0.00
				CHANNELS 3 Zrotation Xrotation Yrotation
				End Site
				{
					OFFSET 0.1237 -0.0542 -0.0051
				}
			}
		}
	}
}
MOTION
Frames: 25
Frame Time: 0.02
-0.00028 -7e-05 0.0003 21.21224 -28.95037 -7.05951 48.95658 2.89966 -0.87856 -14.89531 -1.43526 -1.72855 29.97625 -101.89071 55.63247 8.10498 87.74313 7.74221 -0.66858 4.88547 109.67176 -55.61439 9.06735 -83.23166 4.85963 2.07353 44.48374 -4.40922 -11.3589 -21.63976 -6.9159 -2.48784 -3.47512 48.18386 10.11269 5.31336 -26.96271 -6.94616 2.09631 3.26383
-0.00021 -5e-05 0.00026 21.21489 -28.95835 -7.0549 48.97224 2.8976 -0.87863 -14.91234 -1.44458 -1.72879 30.00494 -101.86705 55.63248 8.09877 87.74456 7.746 -0.67337 4.83943 109.60291 -55.61419 9.06916 -83.23383 4.84431 2.07886 44.47694 -4.42973 -11.44329 -21.63362 -6.91471 -2.48774 -3.47325 48.18374 10.09269 5.25277 -26.96011 -6.94594 2.10161 3.26776
-0.00015 -4e-05 0.00021 21.21753 -28.9663 -7.05031 48.98786 2.89555 -0.8787 -14.92931 -1.45386 -1.72902 30.03352 -101.84345 55.63248 8.09258 87.74599 7.74975 -0.67814 4.79352 109.5342 -55.61399 9.07099 -83.236 4.82896 2.08414 44.47015 -4.45015 -11.52722 -21.62751 -6.91353 -2.48765 -3.47139 48.1836 10.07274 5.19238 -26.95751 -6.94573 2.10689 3.27167
-8e-05 -3e-05 0.00017 21.22017 -28.97425 -7.04572 49.00347 2.8935 -0.87876 -14.94629 -1.46314 -1.72926 30.06211 -101.81986 55.63248 8.08639 87.74741 7.75353 -0.68292 4.74761 109.46555 -55.61378 9.07279 -83.23816 4.81367 2.08945 44.46336 -4.47059 -11.61131 -21.62139 -6.91235 -2.48756 -3.46952 48.18348 10.0528 5.13199 -26.95492 -6.94551 2.11217 3.27559
-2e-05 -1e-05 0.00012 21.22282 -28.98224 -7.04112 49.01913 2.89144 -0.87883 -14.96332 -1.47248 -1.7295 30.09084 -101.79622 55.63248 8.08016 87.74884 7.75736 -0.68771 4.70158 109.39681 -55.61358 9.07457 -83.24032 4.79845 2.0948 44.45657 -4.49115 -11.69596 -21.61524 -6.91116 -2.48745 -3.46764 48.18339 10.0328 5.07138 -26.95232 -6.9453 2.11747 3.27952
4e-05 -0 8e-05 21.22544 -28.9901 -7.03655 49.03465 2.88941 -0.87889 -14.98018 -1.48163 -1.72974 30.11911 -101.77271 55.63249 8.07405 87.75027 7.76095 -0.69244 4.65591 109.32814 -55.61337 9.07651 -83.24252 4.78282 2.09994 44.44978 -4.51128 -11.77838 -21.60919 -6.91 -2.48742 -3.46582 48.18315 10.01297 5.01144 -26.94975 -6.94508 2.12271 3.28341
0.00011 1e-05 3e-05 21.22812 -28.99821 -7.03192 49.05043 2.88732 -0.87897 -14.99738 -1.49113 -1.72998 30.14824 -101.74897 55.63249 8.06771 87.75169 7.765 -0.69729 4.60957 109.2594 -55.61318 9.07812 -83.24463 4.76802 2.10551 44.44299 -4.53223 -11.86515 -21.60295 -6.90879 -2.48722 -3.46388 48.1832 9.99284 4.95027 -26.94712 -6.94487 2.12805 3.28738
0.00017 3e-05 -1e-05 21.23075 -29.0061 -7.02734 49.06598 2.88528 -0.87903 -15.01425 -1.50032 -1.73022 30.17663 -101.72543 55.63249 8.06158 87.75311 7.76865 -0.70203 4.56385 109.19074 -55.61297 9.08002 -83.24682 4.75249 2.11069 44.43621 -4.55244 -11.94798 -21.59688 -6.90762 -2.48718 -3.46205 48.183 9.97296 4.89015 -26.94454 -6.94465 2.13331 3.29128
0.00023 4e-05 -6e-05 21.2333 -29.01367 -7.02282 49.08123 2.88332 -0.87907 -15.03079 -1.50911 -1.73045 30.20392 -101.70215 55.63249 8.05574 87.75455 7.77173 -0.70664 4.51887 109.12209 -55.61274 9.08234 -83.24912 4.73591 2.11537 44.42942 -4.5717 -12.02571 -21.59104 -6.90652 -2.48733 -3.46038 48.18243 9.95347 4.83161 -26.94202 -6.94441 2.13844 3.29509
0.0003 5e-05 -0.0001 21.23625 -29.02294 -7.01795 49.09815 2.88098 -0.87922 -15.04941 -1.52015 -1.73071 30.23693 -101.67741 55.63249 8.04834 87.75594 7.77785 -0.71202 4.46955 109.05311 -55.61264 9.08245 -83.25083 4.72487 2.12283 44.42261 -4.5963 -12.13192 -21.58397 -6.90505 -2.48638 -3.45784 48.18381 9.93196 4.76489 -26.93916 -6.94427 2.14422 3.2994
0.00036 7e-05 -0.00015 21.23839 -29.02869 -7.01385 49.11158 2.87939 -0.87917 -15.06354 -1.52648 -1.73091 30.25829 -101.65574 55.6325 8.04412 87.75743 7.77772 -0.71576 4.42945 108.98501 -55.61227 9.0871 -83.25377 4.70247 2.1245 44.41588 -4.6097 -12.17861 -21.57944 -6.90437 -2.48775 -3.45711 48.18118 9.9146 4.71482 -26.93703 -6.94393 2.14869 3.30267
0.00041 8e-05 -0.00019 21.238 -29.02408 -7.0117 49.115 2.88025 -0.87823 -15.06618 -1.51939 -1.73094 30.24374 -101.64264 55.63249 8.04967 87.75937 7.75884 -0.71496 4.41443 108.91774 -55.61105 9.10527 -83.26023 4.64563 2.10951 44.40904 -4.59156 -12.05568 -21.58223 -6.90589 -2.49557 -3.46146 48.16642 9.90977 4.71651 -26.93695 -6.94291 2.14903 3.30277
0.00045 9e-05 -0.00023 21.23684 -29.01604 -7.01036 49.11498 2.88179 -0.87715 -15.06417 -1.50768 -1.73092 30.21821 -101.6326 55.6325 8.05821 87.76141 7.73394 -0.71249 4.40875 108.85163 -55.60957 9.12781 -83.2679 4.57791 2.08883 44.40234 -4.56232 -11.87407 -21.5875 -6.90821 -2.50569 -3.46761 48.1478 9.90897 4.73413 -26.9376 -6.94169 2.14813 3.30186
0.0005 0.0001 -0.00028 21.23626 -29.01003 -7.00878 49.11683 2.88275 -0.8764 -15.06375 -1.4984 -1.73093 30.20028 -101.62108 55.6325 8.0647 87.76329 7.71286 -0.7108 4.39889 108.78605 -55.60827 9.14766 -83.2749 4.51738 2.07131 44.39577 -4.53871 -11.72353 -21.59138 -6.91015 -2.51469 -3.47287 48.13168 9.90549 4.74004 -26.93788 -6.94064 2.14819 3.30165
0.00054 0.00011 -0.00032 21.23478 -29.00209 -7.00665 49.11742 2.88485 -0.87459 -15.06548 -1.48765 -1.7309 30.17135 -101.60994 55.63248 8.0741 87.76562 7.68734 -0.70905 4.38862 108.7161 -55.60671 9.17048 -83.28237 4.4476 2.05147 44.38838 -4.51264 -11.55465 -21.59637 -6.91218 -2.52404 -3.47841 48.1125 9.90529 4.76343 -26.93831 -6.9393 2.14668 3.30052
0.00059 0.00012 -0.00036 21.2349 -28.9973 -7.00586 49.11979 2.88476 -0.87486 -15.06168 -1.47893 -1.73093 30.16267 -101.5987 55.63252 8.07817 87.76709 7.66945 -0.707 4.38161 108.65541 -55.60565 9.18817 -83.28919 4.3942 2.03495 44.38274 -4.489 -11.4096 -21.59963 -6.9142 -2.53319 -3.4838 48.09868 9.89962 4.75597 -26.93862 -6.93848 2.14802 3.30097
0.00063 0.00013 -0.00038 21.24036 -29.0024 -7.00878 49.12803 2.87822 -0.88163 -15.04342 -1.4764 -1.73111 30.21327 -101.58666 55.6328 8.06673 87.76588 7.67579 -0.7047 4.37972 108.62108 -55.60587 9.19037 -83.29347 4.39134 2.03048 44.38179 -4.47553 -11.34905 -21.5974 -6.916 -2.5412 -3.48832 48.10138 9.87419 4.64406 -26.93849 -6.9393 2.15865 3.30673
0.00067 0.00014 -0.00039 21.24734 -29.01073 -7.013 49.13816 2.86949 -0.89037 -15.01982 -1.47615 -1.73133 30.28457 -101.57436 55.63315 8.04985 87.76387 7.68975 -0.70211 4.38105 108.59584 -55.60659 9.1873 -83.29713 4.40484 2.02931 44.38262 -4.46475 -11.31374 -21.59336 -6.91776 -2.54894 -3.49262 48.10947 9.84377 4.50327 -26.93822 -6.94063 2.172 3.31399
0.00071 0.00014 -0.00041 21.25312 -29.01736 -7.01651 49.14733 2.86193 -0.89772 -14.99887 -1.47524 -1.73154 30.34587 -101.56198 55.63346 8.03548 87.76243 7.69909 -0.69952 4.382 108.56573 -55.60723 9.18679 -83.30137 4.40913 2.02562 44.38271 -4.45224 -11.26404 -21.59022 -6.91955 -2.55681 -3.49699 48.11456 9.81807 4.386 -26.93798 -6.94163 2.18341 3.32007
0.00076 0.00015 -0.00042 21.26094 -29.02484 -7.02057 49.15681 2.85369 -0.90711 -14.97677 -1.4727 -1.73174 30.40903 -101.5505 55.63381 8.02101 87.76014 7.71297 -0.69743 4.37886 108.53877 -55.60739 9.18569 -83.30441 4.42059 2.02591 44.38253 -4.44146 -11.22456 -21.58684 -6.92135 -2.56473 -3.50153 48.12176 9.7823 4.22606 -26.93789 -6.94303 2.19776 3.32818
0.00079 0.00016 -0.00043 21.26496 -29.03139 -7.02378 49.16614 2.84632 -0.91277 -14.95589 -1.47401 -1.73196 30.47371 -101.53708 55.63408 8.0055 87.75943 7.71946 -0.69428 4.38471 108.50741 -55.60849 9.18459 -83.30977 4.42105 2.01891 44.38332 -4.42789 -11.17061 -21.58349 -6.9231 -2.57244 -3.50566 48.12597 9.76607 4.14709 -26.93746 -6.94373 2.20663 3.33247
0.00083 0.00017 -0.00043 21.25755 -29.03445 -7.02422 49.17468 2.84207 -0.90726 -14.93965 -1.48662 -1.73216 30.53464 -101.5181 55.63413 7.98779 87.76346 7.70204 -0.68789 4.41628 108.46152 -55.61309 9.18415 -83.32183 4.388 1.98975 44.38629 -4.40599 -11.07073 -21.58063 -6.92467 -2.57954 -3.5086 48.12012 9.80673 4.30597 -26.93607 -6.94238 2.19983 3.32562
0.00085 0.00017 -0.00042 21.24637 -29.03651 -7.02379 49.18301 2.83875 -0.89801 -14.92484 -1.50282 -1.73238 30.597 -101.49718 55.6341 7.96938 87.76908 7.67724 -0.68052 4.45652 108.41086 -55.61798 9.18402 -83.33619 4.3432 1.9534 44.39018 -4.38128 -10.95591 -21.57786 -6.92619 -2.58642 -3.51116 48.11118 9.8669 4.54595 -26.93436 -6.94031 2.18741 3.31492
0.00088 0.00017 -0.00042 21.23732 -29.03912 -7.02384 49.19143 2.83489 -0.89075 -14.90943 -1.51663 -1.73259 30.66067 -101.4773 55.63411 7.95168 87.77388 7.65694 -0.67384 4.49157 108.36257 -55.62269 9.18411 -83.34941 4.30328 1.92123 44.39369 -4.35783 -10.8478 -21.57504 -6.92777 -2.59343 -3.51399 48.104 9.91698 4.74394 -26.93285 -6.93858 2.17749 3.30615
0.00091 0.00018 -0.00042 21.2266 -29.04143 -7.02357 49.19996 2.83142 -0.88234 -14.89364 -1.53375 -1.7328 30.71676 -101.45679 55.63413 7.93199 87.7791 7.63213 -0.66608 4.53173 108.31398 -55.62956 9.18238 -83.36306 4.26591 1.88541 44.39713 -4.33435 -10.73991 -21.57218 -6.92922 -2.60029 -3.51641 48.09552 9.97201 4.9624 -26.93113 -6.93683 2.16788 3.29668
